# xmcd
#
# Track frame offsets:
#	150
#	19601
#	34383
#	49835
#	66756
#	81910
#	98769
#	112571
#	125517
#	140385
#	158645
#	175830
#	191340
#	206610
#
# Disc length: 2918 seconds
#
# Revision: 1
# Processed by: cddbd v1.5.1PL2 Copyright (c) Steve Scherf et al.
# Submitted via: audiograbber 1.83.01
#
DISCID=b10b640e
DTITLE=Kenny Rogers - You Decorated My Life
DYEAR=1997
DGENRE=Pop
TTITLE0=She Believes In Me (While She Lays)
TTITLE1=Crazy
TTITLE2=When I Fall In Love
TTITLE3=You Decorated My Life
TTITLE4=Can't Help Falling In Love
TTITLE5=Stardust
TTITLE6=You Send Me
TTITLE7=As Time Goes By
TTITLE8=Misty
TTITLE9=My Funny Valentine
TTITLE10=Endless Love
TTITLE11=Through The Years
TTITLE12=Unforgettable
TTITLE13=Somewhere My Love
EXTD=
EXTT0=
EXTT1=
EXTT2=
EXTT3=
EXTT4=
EXTT5=
EXTT6=
EXTT7=
EXTT8=
EXTT9=
EXTT10=
EXTT11=
EXTT12=
EXTT13=
PLAYORDER=
